<?xml version="1.0" standalone="no"?>
<!DOCTYPE svg PUBLIC "-//W3C//DTD SVG 20010904//EN"
 "http://www.w3.org/TR/2001/REC-SVG-20010904/DTD/svg10.dtd">
<svg version="1.0" xmlns="http://www.w3.org/2000/svg"
 width="318.000000pt" height="318.000000pt" viewBox="0 0 318.000000 318.000000"
 preserveAspectRatio="xMidYMid meet">
<metadata>
Created by potrace 1.14, written by Peter Selinger 2001-2017
</metadata>
<g transform="translate(0.000000,318.000000) scale(0.100000,-0.100000)"
fill="#000000" stroke="none">
<path d="M1603 2507 c-3 -5 -11 -6 -18 -3 -8 3 -25 -4 -38 -15 -14 -10 -29
-19 -33 -19 -17 0 -85 -84 -91 -111 -3 -16 -9 -29 -14 -29 -14 0 -3 -151 12
-161 8 -5 10 -9 5 -9 -4 0 -1 -11 8 -25 20 -30 20 -35 1 -35 -8 0 -17 14 -21
35 -13 70 -93 120 -175 110 -60 -8 -139 -57 -139 -86 0 -11 -4 -19 -9 -19 -5
0 -8 -13 -7 -30 1 -16 -1 -30 -5 -30 -4 0 -5 -10 -2 -22 3 -13 7 -39 10 -58
l4 -35 -20 25 c-11 13 -18 28 -15 31 2 4 0 9 -5 11 -4 1 -29 40 -55 84 -48 83
-49 87 -32 161 8 38 -22 129 -54 164 -37 40 -115 67 -183 65 -58 -2 -147 -40
-147 -62 0 -8 -5 -14 -10 -14 -11 0 -53 -65 -56 -86 -1 -7 -23 -46 -48 -88
-25 -42 -46 -80 -46 -86 0 -5 -4 -10 -8 -10 -5 0 -9 -6 -9 -12 0 -7 -12 -38
-26 -69 -14 -31 -23 -60 -20 -63 4 -3 2 -6 -4 -6 -18 0 -38 -107 -24 -128 4
-8 24 -15 42 -17 58 -4 69 -13 58 -43 -6 -15 -10 -29 -10 -32 1 -8 -40 -6
-116 5 -63 10 -73 9 -85 -5 -7 -9 -14 -21 -14 -26 -10 -61 -21 -140 -29 -209
-3 -27 -8 -61 -10 -75 -3 -14 -8 -45 -11 -70 -3 -25 -7 -57 -10 -72 -4 -29 5
-39 45 -45 43 -6 76 -12 79 -14 3 -3 21 -6 37 -8 8 0 14 -4 13 -8 -1 -5 5 -21
12 -38 7 -16 12 -36 11 -42 -1 -7 3 -13 8 -13 16 0 3 -43 -18 -60 -43 -35 -54
-104 -24 -155 9 -16 23 -20 70 -22 32 0 62 2 68 5 5 4 17 7 25 9 20 3 62 25
81 43 9 8 33 28 52 44 28 22 34 33 31 54 -3 15 -10 32 -16 39 -6 7 -8 13 -5
13 3 0 -1 16 -9 35 -21 51 -19 58 17 50 17 -4 41 -8 53 -9 44 -5 55 -27 33
-63 -5 -7 -6 -13 -2 -13 3 0 1 -8 -4 -19 -6 -10 -13 -37 -15 -59 -3 -21 -9
-50 -14 -63 -4 -13 -8 -31 -7 -39 1 -8 -1 -19 -4 -25 -22 -42 11 -93 79 -123
43 -19 57 -23 135 -36 77 -14 141 77 103 147 -14 27 -34 47 -46 47 -27 0 -30
27 -14 113 9 48 19 87 22 87 3 0 21 -22 40 -50 19 -27 38 -49 42 -50 4 0 25
-17 47 -37 60 -56 98 -80 161 -99 23 -7 34 -8 78 -5 30 2 116 94 110 118 -1 4
4 28 11 53 7 25 13 55 13 68 1 26 14 28 54 8 33 -17 71 -26 129 -32 22 -2 45
-4 50 -5 23 -2 131 14 148 23 9 5 17 7 17 4 0 -2 20 2 45 10 25 7 45 11 45 9
0 -2 12 3 27 10 31 16 44 5 39 -31 -2 -10 0 -31 4 -45 4 -15 4 -32 0 -40 -5
-7 -6 -17 -3 -22 3 -5 6 -30 7 -56 2 -40 -2 -50 -30 -76 -80 -76 -92 -149 -35
-203 20 -20 34 -24 76 -27 44 -2 83 17 137 68 10 9 18 14 18 11 0 -3 12 9 27
28 15 18 35 40 43 48 12 11 15 33 13 90 -7 235 -10 301 -16 306 -3 4 -2 15 4
25 6 13 6 19 0 19 -6 0 -8 7 -4 16 5 14 12 11 37 -18 17 -19 42 -50 56 -68 14
-18 33 -41 43 -51 9 -11 17 -22 17 -25 0 -3 6 -11 13 -19 6 -7 28 -32 47 -56
50 -63 121 -134 147 -147 34 -18 87 -14 117 9 14 11 26 18 26 16 0 -4 118 114
153 153 28 31 60 83 46 75 -11 -7 -12 -6 -2 6 6 8 14 31 17 51 3 21 15 47 26
58 11 11 20 29 20 40 0 11 4 20 8 20 7 0 8 23 3 70 -1 8 -13 28 -26 43 -20 23
-35 29 -75 31 -28 2 -50 -1 -50 -5 0 -5 -9 -9 -20 -9 -11 0 -20 -4 -20 -10 0
-5 -7 -10 -15 -10 -11 0 -15 12 -16 43 0 23 -2 62 -4 87 -2 25 -6 88 -10 140
-8 123 -8 123 -28 153 -9 15 -17 29 -17 32 0 7 -12 22 -62 76 -21 22 -38 43
-38 46 0 11 -75 88 -95 98 -11 6 -31 9 -45 8 -14 -2 -41 -4 -60 -6 -19 -2 -39
-2 -45 0 -5 2 -10 29 -10 61 1 88 -15 116 -82 152 -37 19 -136 33 -148 21 -3
-3 -12 -6 -19 -7 -88 -13 -147 -98 -141 -205 l3 -47 -46 19 c-26 11 -48 21
-49 23 -2 1 2 18 7 37 14 46 14 149 1 162 -6 6 -11 19 -11 29 0 10 -5 18 -12
18 -6 0 -8 3 -5 6 13 13 -73 81 -119 94 -54 15 -143 19 -151 7z"/>
<path d="M1089 2330 c-39 -20 -56 -47 -40 -63 5 -5 17 -1 30 12 12 12 33 26
46 31 26 10 35 40 13 40 -7 -1 -29 -10 -49 -20z"/>
<path d="M1133 2285 c-24 -15 -43 -30 -43 -36 0 -5 -7 -9 -17 -9 -9 0 -13 -3
-10 -7 4 -3 2 -12 -5 -20 -9 -11 -8 -18 5 -31 10 -9 17 -11 17 -5 0 21 54 69
98 88 23 10 41 23 39 29 -7 20 -42 16 -84 -9z"/>
<path d="M2503 2263 c-19 -7 -16 -33 5 -34 9 -1 26 -2 37 -3 11 0 31 -9 45
-18 31 -23 54 -23 46 -2 -3 9 -6 17 -6 19 0 16 -104 46 -127 38z"/>
<path d="M2447 2195 c-24 -17 -10 -25 50 -27 34 -1 59 -10 87 -30 23 -16 44
-24 49 -19 11 11 -13 51 -30 51 -7 0 -13 4 -13 9 0 21 -118 35 -143 16z"/>
<path d="M185 1912 c-29 -6 -45 -22 -45 -43 0 -23 8 -23 34 -4 11 8 28 15 38
15 20 0 25 26 6 32 -7 2 -22 2 -33 0z"/>
<path d="M230 1862 c-51 -5 -89 -51 -70 -82 7 -11 12 -10 25 3 9 10 13 17 9
17 -3 0 -1 6 5 13 6 8 27 13 51 12 26 -1 40 2 40 10 0 20 -23 31 -60 27z"/>
<path d="M2989 1255 c-7 -41 -8 -52 -12 -65 -2 -8 -9 -26 -14 -40 -12 -29 2
-45 22 -27 7 7 12 13 10 15 -1 2 3 23 10 47 11 36 11 46 0 62 -8 10 -15 14
-16 8z"/>
<path d="M3037 1223 c-3 -5 -8 -25 -11 -45 -3 -21 -7 -42 -8 -47 -2 -5 2 -10
7 -11 14 -4 35 39 35 72 0 27 -14 45 -23 31z"/>
<path d="M1409 956 c-7 -14 -16 -23 -20 -20 -5 3 -9 1 -9 -4 0 -14 -73 -43
-97 -38 -18 4 -23 0 -23 -15 0 -16 7 -19 39 -19 22 0 43 5 46 10 4 6 11 8 16
5 5 -4 9 -2 9 3 0 5 11 15 25 22 14 7 31 23 40 36 12 19 12 24 0 34 -12 10
-17 7 -26 -14z"/>
<path d="M1438 891 c-47 -46 -98 -79 -98 -64 0 4 -5 1 -10 -7 -6 -9 -10 -10
-10 -3 0 9 -8 9 -30 2 -35 -13 -38 -24 -9 -32 46 -12 116 15 172 68 37 35 48
62 25 62 -7 -1 -25 -12 -40 -26z"/>
</g>
</svg>
